<svg xmlns="http://www.w3.org/2000/svg" viewBox="0 0 128 128">
  <defs>
    <!-- Chrome metallic gradient -->
    <linearGradient id="chrome" x1="0%" y1="0%" x2="100%" y2="100%">
      <stop offset="0%" stop-color="#ffffff"/>
      <stop offset="20%" stop-color="#e0e0e0"/>
      <stop offset="40%" stop-color="#a0a0a0"/>
      <stop offset="50%" stop-color="#d8d8d8"/>
      <stop offset="65%" stop-color="#888888"/>
      <stop offset="80%" stop-color="#c0c0c0"/>
      <stop offset="100%" stop-color="#666666"/>
    </linearGradient>
    <!-- Soft glow -->
    <filter id="glow" x="-30%" y="-30%" width="160%" height="160%">
      <feGaussianBlur stdDeviation="5" result="blur"/>
      <feComponentTransfer in="blur" result="softGlow">
        <feFuncA type="linear" slope="0.6"/>
      </feComponentTransfer>
      <feMerge>
        <feMergeNode in="softGlow"/>
        <feMergeNode in="SourceGraphic"/>
      </feMerge>
    </filter>
    <!-- Dreamy highlight -->
    <radialGradient id="highlight" cx="35%" cy="30%" r="65%">
      <stop offset="0%" stop-color="#ffffff" stop-opacity="0.85"/>
      <stop offset="30%" stop-color="#ffffff" stop-opacity="0.2"/>
      <stop offset="100%" stop-color="#ffffff" stop-opacity="0"/>
    </radialGradient>
  </defs>

  <!-- Glow behind star -->
  <path d="M64 6 L78 48 L124 48 L88 76 L102 120 L64 94 L26 120 L40 76 L4 48 L50 48 Z"
        fill="rgba(200,180,255,0.12)" filter="url(#glow)" transform="scale(1.1) translate(-6,-6)"/>

  <!-- Chrome 5-pointed star -->
  <path d="M64 6 L78 48 L124 48 L88 76 L102 120 L64 94 L26 120 L40 76 L4 48 L50 48 Z"
        fill="url(#chrome)" stroke="#777" stroke-width="1.5" stroke-linejoin="round"/>

  <!-- Highlight reflection -->
  <path d="M64 6 L78 48 L124 48 L88 76 L102 120 L64 94 L26 120 L40 76 L4 48 L50 48 Z"
        fill="url(#highlight)"/>
</svg>
