<svg xmlns="http://www.w3.org/2000/svg" viewBox="0 0 128 128">
  <rect width="128" height="128" rx="28" fill="#FFF7FA"/>
  <!-- Y2K 4-point sparkle -->
  <path d="M64 2 C72 44 78 50 84 56 C100 72 126 64 126 64 C126 64 100 72 84 88 C78 94 72 100 64 126 C56 100 50 94 44 88 C28 72 2 64 2 64 C2 64 28 72 44 56 C50 50 56 44 64 2 Z"
        fill="#FC97B7" stroke="#402934" stroke-width="5" stroke-linejoin="round"/>
  <!-- Lime accent diamond center -->
  <polygon points="64,52 76,64 64,76 52,64" fill="#D1F985"/>
</svg>
